<svg width="240" height="35" viewBox="0 0 240 35" fill="none" xmlns="http://www.w3.org/2000/svg">
<path d="M13.5382 11.2817L21.7599 1.80469V0.708471H25.632V27H21.7599V4.50987L12.4774 15.2245L3.24795 4.47451V27H1.4445V2.37048L0.030022 0.708471H4.55634L13.5382 11.2817ZM44.3738 27.5127C43.0772 27.5127 41.8277 27.3477 40.6254 27.0177C39.4349 26.6876 38.3151 26.2279 37.266 25.6386C36.2288 25.0374 35.2799 24.3184 34.4194 23.4815C33.5707 22.6446 32.8399 21.7193 32.227 20.7056C31.614 19.6801 31.1367 18.5839 30.7948 17.4169C30.4648 16.2382 30.2998 15.0123 30.2998 13.7393C30.2998 12.4899 30.4648 11.2817 30.7948 10.1147C31.1367 8.94778 31.614 7.85746 32.227 6.84375C32.8399 5.83004 33.5707 4.90474 34.4194 4.06785C35.2799 3.23095 36.2288 2.51782 37.266 1.92845C38.3151 1.33909 39.4349 0.879387 40.6254 0.549343C41.8277 0.219299 43.0772 0.0542769 44.3738 0.0542769C45.6586 0.0542769 46.8962 0.219299 48.0868 0.549343C49.2773 0.867599 50.3912 1.3273 51.4285 1.92845C52.4657 2.51782 53.4087 3.23095 54.2574 4.06785C55.1179 4.90474 55.8487 5.83004 56.4498 6.84375C57.0628 7.85746 57.5343 8.94778 57.8643 10.1147C58.2061 11.2817 58.3771 12.4899 58.3771 13.7393C58.3771 15.0123 58.2061 16.2382 57.8643 17.4169C57.5343 18.5839 57.0628 19.6801 56.4498 20.7056C55.8487 21.7193 55.1179 22.6446 54.2574 23.4815C53.4087 24.3184 52.4657 25.0374 51.4285 25.6386C50.3912 26.2279 49.2773 26.6876 48.0868 27.0177C46.8962 27.3477 45.6586 27.5127 44.3738 27.5127ZM44.3738 25.7977C45.9768 25.7977 47.3913 25.4853 48.6172 24.8606C49.8549 24.2359 50.8921 23.3813 51.729 22.2969C52.5659 21.2124 53.1966 19.9394 53.6209 18.4778C54.057 17.0044 54.2751 15.4249 54.2751 13.7393C54.2751 12.0655 54.0629 10.4978 53.6386 9.03618C53.2142 7.57456 52.5836 6.30743 51.7467 5.23479C50.9216 4.16214 49.8902 3.31935 48.6526 2.70642C47.4149 2.08169 45.9886 1.76933 44.3738 1.76933C42.7353 1.76933 41.2973 2.08169 40.0596 2.70642C38.8337 3.31935 37.8024 4.16214 36.9655 5.23479C36.1404 6.30743 35.5156 7.57456 35.0913 9.03618C34.6787 10.4978 34.4725 12.0655 34.4725 13.7393C34.4725 15.4249 34.6846 17.0044 35.109 18.4778C35.5333 19.9394 36.158 21.2124 36.9831 22.2969C37.82 23.3813 38.8573 24.2359 40.095 24.8606C41.3327 25.4853 42.7589 25.7977 44.3738 25.7977ZM71.3018 0.708471C72.7988 0.708471 74.0895 0.844025 75.1739 1.11513C76.2702 1.37445 77.1955 1.72218 77.9498 2.15831C78.716 2.59444 79.329 3.0954 79.7887 3.66118C80.2601 4.22697 80.6197 4.81044 80.8672 5.4116C81.1265 6.01275 81.2974 6.6139 81.3799 7.21505C81.4742 7.80441 81.5214 8.35252 81.5214 8.85938C81.5214 9.50768 81.4153 10.2326 81.2031 11.0341C81.0027 11.8357 80.6314 12.6136 80.0892 13.368C79.5588 14.1224 78.828 14.8061 77.8968 15.419C76.9656 16.0201 75.781 16.4504 74.3429 16.7097L81.9457 27H77.2072L69.7813 16.9749H66.9169V27H63.0448V0.708471H71.3018ZM66.9169 2.4412V15.2245H69.1271C70.3883 15.2245 71.5258 15.1125 72.5395 14.8886C73.565 14.6528 74.4372 14.2815 75.1563 13.7747C75.8871 13.256 76.447 12.59 76.8359 11.7767C77.2249 10.9516 77.4194 9.95559 77.4194 8.78865C77.4194 7.46848 77.1837 6.39583 76.7122 5.57072C76.2407 4.73383 75.616 4.08553 74.838 3.62582C74.0718 3.16612 73.1937 2.85376 72.2035 2.68873C71.2134 2.52371 70.1997 2.4412 69.1624 2.4412H66.9169ZM102.756 0.708471V2.4412H90.5387V10.4153H102.385V12.148H90.5387V25.2673H102.756V27H86.6665V0.708471H102.756ZM122.258 0.708471V2.4412H115.893V27H112.021V2.4412H105.603V0.708471H122.258ZM140.611 0.708471V2.4412H134.246V27H130.374V2.4412H123.956V0.708471H140.611ZM148.656 27H144.766V0.708471H148.656V27ZM175.814 0.160362C177.865 0.160362 179.762 0.4963 181.507 1.16817C183.263 1.82826 184.819 2.74767 186.175 3.9264L185.185 5.23479C184.642 4.77508 184.041 4.34485 183.381 3.94408C182.721 3.54331 182.026 3.20148 181.295 2.91859C180.564 2.6239 179.804 2.39405 179.014 2.22903C178.224 2.05222 177.429 1.96382 176.627 1.96382C174.906 1.96382 173.38 2.27618 172.048 2.90091C170.716 3.52563 169.596 4.38021 168.688 5.46464C167.781 6.54907 167.091 7.8162 166.62 9.26604C166.148 10.7159 165.912 12.2718 165.912 13.9338C165.912 15.5604 166.142 17.0928 166.602 18.5308C167.073 19.9689 167.757 21.2301 168.653 22.3146C169.561 23.399 170.68 24.2595 172.012 24.896C173.344 25.5207 174.871 25.8331 176.592 25.8331C177.417 25.8331 178.254 25.7505 179.102 25.5855C179.951 25.4205 180.77 25.1789 181.56 24.8606C182.35 24.5424 183.092 24.1534 183.788 23.6937C184.495 23.234 185.12 22.7094 185.662 22.1201L186.67 23.4108C185.279 24.7309 183.664 25.7623 181.825 26.5049C179.986 27.2475 177.983 27.6188 175.814 27.6188C174.505 27.6188 173.25 27.4538 172.048 27.1238C170.845 26.8055 169.72 26.3458 168.671 25.7447C167.633 25.1435 166.684 24.4304 165.824 23.6053C164.975 22.7684 164.245 21.8431 163.632 20.8294C163.03 19.8157 162.559 18.7312 162.217 17.5761C161.887 16.4091 161.722 15.195 161.722 13.9338C161.722 12.6726 161.887 11.4526 162.217 10.2738C162.559 9.09512 163.03 7.9989 163.632 6.9852C164.245 5.9597 164.975 5.02851 165.824 4.19161C166.684 3.35472 167.633 2.64158 168.671 2.05222C169.72 1.45107 170.845 0.985472 172.048 0.655428C173.25 0.325384 174.505 0.160362 175.814 0.160362ZM195.563 11.5469C194.998 11.5469 194.502 11.5646 194.078 11.5999C193.666 11.6353 193.288 11.6824 192.947 11.7414C192.605 11.8003 192.286 11.871 191.992 11.9535C191.697 12.0243 191.402 12.1009 191.108 12.1834L190.683 11.0341C191.674 10.6687 192.705 10.4094 193.778 10.2562C194.862 10.0911 195.887 10.0086 196.854 10.0086C198.092 10.0086 199.105 10.0735 199.895 10.2031C200.697 10.3328 201.321 10.5509 201.769 10.8573C202.217 11.152 202.524 11.5528 202.689 12.0596C202.866 12.5547 202.954 13.1794 202.954 13.9338V27H197.155C195.575 27 194.225 26.835 193.106 26.5049C191.998 26.1749 191.09 25.7329 190.383 25.1789C189.676 24.6131 189.157 23.9707 188.827 23.2516C188.497 22.5208 188.332 21.7547 188.332 20.9531C188.332 19.963 188.485 19.0907 188.792 18.3363C189.11 17.582 189.564 16.9513 190.153 16.4445C190.742 15.9259 191.461 15.5369 192.31 15.2775C193.159 15.0064 194.125 14.8709 195.21 14.8709C195.799 14.8709 196.465 14.9711 197.208 15.1715C197.962 15.3718 198.681 15.6724 199.365 16.0732V13.8631C199.365 13.592 199.335 13.3209 199.276 13.0498C199.217 12.7669 199.064 12.5193 198.817 12.3072C198.569 12.0832 198.186 11.9005 197.667 11.759C197.16 11.6176 196.459 11.5469 195.563 11.5469ZM199.365 25.5502V17.3639C198.799 17.0221 198.21 16.7686 197.597 16.6036C196.984 16.4386 196.306 16.3561 195.563 16.3561C194.974 16.3561 194.449 16.4622 193.99 16.6743C193.542 16.8865 193.165 17.1871 192.858 17.5761C192.552 17.965 192.316 18.4306 192.151 18.9729C191.998 19.5151 191.921 20.1162 191.921 20.7763C191.921 20.9649 191.927 21.2124 191.939 21.5189C191.962 21.8254 192.021 22.1554 192.116 22.509C192.222 22.8627 192.375 23.2222 192.575 23.5876C192.787 23.9412 193.082 24.2654 193.459 24.56C193.836 24.8547 194.314 25.0964 194.891 25.285C195.469 25.4618 196.176 25.5502 197.013 25.5502H199.365ZM213.792 11.9359H211.582V33.4535L208.17 34.426V11.9359H205.889V10.3446H208.17V3.74959C208.205 3.25452 208.311 2.81839 208.488 2.4412C208.677 2.06401 208.918 1.74575 209.213 1.48643C209.519 1.22711 209.873 1.03262 210.274 0.902961C210.675 0.773301 211.111 0.708471 211.582 0.708471H214.588V2.29975C213.916 2.29975 213.38 2.31154 212.979 2.33512C212.59 2.35869 212.289 2.42352 212.077 2.52961C211.865 2.63569 211.73 2.78893 211.671 2.98931C211.612 3.18969 211.582 3.46669 211.582 3.82031V10.3446H213.792V11.9359ZM223.411 11.9359H221.201V33.4535L217.788 34.426V11.9359H215.507V10.3446H217.788V3.74959C217.824 3.25452 217.93 2.81839 218.106 2.4412C218.295 2.06401 218.537 1.74575 218.831 1.48643C219.138 1.22711 219.492 1.03262 219.892 0.902961C220.293 0.773301 220.729 0.708471 221.201 0.708471H224.206V2.29975C223.535 2.29975 222.998 2.31154 222.597 2.33512C222.208 2.35869 221.908 2.42352 221.696 2.52961C221.484 2.63569 221.348 2.78893 221.289 2.98931C221.23 3.18969 221.201 3.46669 221.201 3.82031V10.3446H223.411V11.9359ZM233.436 10.0086C234.638 10.0086 235.652 10.2326 236.477 10.6805C237.314 11.1166 237.992 11.7119 238.51 12.4663C239.041 13.2207 239.418 14.0929 239.642 15.0831C239.878 16.0614 239.995 17.0987 239.995 18.1949V19.0259H229.104C229.104 19.686 229.21 20.3991 229.422 21.1653C229.634 21.9315 229.976 22.6387 230.448 23.287C230.931 23.9353 231.55 24.4775 232.304 24.9137C233.07 25.338 234.008 25.5502 235.116 25.5502H238.793V27H235.063C233.412 27 231.986 26.8114 230.784 26.4342C229.593 26.057 228.609 25.5089 227.831 24.7899C227.065 24.0709 226.499 23.1927 226.134 22.1554C225.768 21.1181 225.586 19.9335 225.586 18.6016C225.586 17.4936 225.756 16.4209 226.098 15.3836C226.452 14.3464 226.959 13.4328 227.619 12.6431C228.291 11.8416 229.11 11.205 230.076 10.7336C231.055 10.2503 232.175 10.0086 233.436 10.0086ZM233.259 11.6176C232.528 11.6176 231.904 11.7826 231.385 12.1127C230.866 12.4427 230.436 12.8847 230.094 13.4387C229.764 13.9809 229.517 14.6175 229.352 15.3483C229.198 16.0673 229.116 16.8158 229.104 17.5938H236.583V16.8335C236.559 16.1498 236.495 15.4956 236.389 14.8709C236.294 14.2462 236.123 13.6922 235.876 13.2089C235.628 12.7256 235.292 12.3425 234.868 12.0596C234.455 11.7649 233.919 11.6176 233.259 11.6176ZM235.398 7.8162H233.701L229.069 2.63569H233.188L235.398 7.8162Z" fill="#EEEEEE"/>
</svg>
