<svg width="125" height="35" viewBox="0 0 125 35" fill="none" xmlns="http://www.w3.org/2000/svg">
<path d="M13.7664 11.2817L21.9881 1.80469V0.708471H25.8602V27H21.9881V4.50987L12.7056 15.2245L3.47615 4.47451V27H1.6727V2.37048L0.258225 0.708471H4.78454L13.7664 11.2817ZM34.6653 27H31.0761V24.1711H34.6653V27ZM60.5855 0.160362C62.6365 0.160362 64.5343 0.4963 66.2788 1.16817C68.0351 1.82826 69.591 2.74767 70.9465 3.9264L69.9564 5.23479C69.4142 4.77508 68.813 4.34485 68.153 3.94408C67.4929 3.54331 66.7974 3.20148 66.0666 2.91859C65.3358 2.6239 64.5755 2.39405 63.7858 2.22903C62.996 2.05222 62.2004 1.96382 61.3988 1.96382C59.6779 1.96382 58.1515 2.27618 56.8195 2.90091C55.4875 3.52563 54.3677 4.38021 53.4601 5.46464C52.5525 6.54907 51.8629 7.8162 51.3914 9.26604C50.92 10.7159 50.6842 12.2718 50.6842 13.9338C50.6842 15.5604 50.9141 17.0928 51.3738 18.5308C51.8453 19.9689 52.5289 21.2301 53.4248 22.3146C54.3324 23.399 55.4522 24.2595 56.7841 24.896C58.1161 25.5207 59.6425 25.8331 61.3635 25.8331C62.1886 25.8331 63.0255 25.7505 63.8742 25.5855C64.7229 25.4205 65.5421 25.1789 66.3318 24.8606C67.1216 24.5424 67.8642 24.1534 68.5596 23.6937C69.2669 23.234 69.8916 22.7094 70.4338 22.1201L71.4416 23.4108C70.0507 24.7309 68.4359 25.7623 66.597 26.5049C64.7582 27.2475 62.7544 27.6188 60.5855 27.6188C59.2771 27.6188 58.0218 27.4538 56.8195 27.1238C55.6172 26.8055 54.4915 26.3458 53.4424 25.7447C52.4052 25.1435 51.4563 24.4304 50.5958 23.6053C49.7471 22.7684 49.0163 21.8431 48.4034 20.8294C47.8022 19.8157 47.3307 18.7312 46.9889 17.5761C46.6589 16.4091 46.4938 15.195 46.4938 13.9338C46.4938 12.6726 46.6589 11.4526 46.9889 10.2738C47.3307 9.09512 47.8022 7.9989 48.4034 6.9852C49.0163 5.9597 49.7471 5.02851 50.5958 4.19161C51.4563 3.35472 52.4052 2.64158 53.4424 2.05222C54.4915 1.45107 55.6172 0.985472 56.8195 0.655428C58.0218 0.325384 59.2771 0.160362 60.5855 0.160362ZM80.3351 11.5469C79.7693 11.5469 79.2743 11.5646 78.8499 11.5999C78.4374 11.6353 78.0602 11.6824 77.7183 11.7414C77.3765 11.8003 77.0583 11.871 76.7636 11.9535C76.4689 12.0243 76.1742 12.1009 75.8795 12.1834L75.4552 11.0341C76.4453 10.6687 77.4767 10.4094 78.5493 10.2562C79.6338 10.0911 80.6593 10.0086 81.6258 10.0086C82.8635 10.0086 83.8772 10.0735 84.6669 10.2031C85.4685 10.3328 86.0932 10.5509 86.5411 10.8573C86.989 11.152 87.2955 11.5528 87.4605 12.0596C87.6373 12.5547 87.7257 13.1794 87.7257 13.9338V27H81.9264C80.3469 27 78.9973 26.835 77.8775 26.5049C76.7695 26.1749 75.8618 25.7329 75.1546 25.1789C74.4474 24.6131 73.9287 23.9707 73.5987 23.2516C73.2686 22.5208 73.1036 21.7547 73.1036 20.9531C73.1036 19.963 73.2569 19.0907 73.5633 18.3363C73.8816 17.582 74.3354 16.9513 74.9248 16.4445C75.5141 15.9259 76.2331 15.5369 77.0818 15.2775C77.9305 15.0064 78.8971 14.8709 79.9815 14.8709C80.5709 14.8709 81.2368 14.9711 81.9794 15.1715C82.7338 15.3718 83.4529 15.6724 84.1365 16.0732V13.8631C84.1365 13.592 84.107 13.3209 84.0481 13.0498C83.9892 12.7669 83.8359 12.5193 83.5884 12.3072C83.3409 12.0832 82.9578 11.9005 82.4391 11.759C81.9323 11.6176 81.2309 11.5469 80.3351 11.5469ZM84.1365 25.5502V17.3639C83.5707 17.0221 82.9814 16.7686 82.3684 16.6036C81.7555 16.4386 81.0777 16.3561 80.3351 16.3561C79.7458 16.3561 79.2212 16.4622 78.7615 16.6743C78.3136 16.8865 77.9364 17.1871 77.6299 17.5761C77.3235 17.965 77.0877 18.4306 76.9227 18.9729C76.7695 19.5151 76.6928 20.1162 76.6928 20.7763C76.6928 20.9649 76.6987 21.2124 76.7105 21.5189C76.7341 21.8254 76.793 22.1554 76.8873 22.509C76.9934 22.8627 77.1467 23.2222 77.347 23.5876C77.5592 23.9412 77.8539 24.2654 78.2311 24.56C78.6083 24.8547 79.0857 25.0964 79.6632 25.285C80.2408 25.4618 80.9481 25.5502 81.785 25.5502H84.1365ZM98.5641 11.9359H96.354V33.4535L92.9416 34.426V11.9359H90.6608V10.3446H92.9416V3.74959C92.977 3.25452 93.0831 2.81839 93.2599 2.4412C93.4485 2.06401 93.6901 1.74575 93.9848 1.48643C94.2913 1.22711 94.6449 1.03262 95.0456 0.902961C95.4464 0.773301 95.8825 0.708471 96.354 0.708471H99.3598V2.29975C98.6879 2.29975 98.1516 2.31154 97.7508 2.33512C97.3618 2.35869 97.0613 2.42352 96.8491 2.52961C96.6369 2.63569 96.5014 2.78893 96.4424 2.98931C96.3835 3.18969 96.354 3.46669 96.354 3.82031V10.3446H98.5641V11.9359ZM108.183 11.9359H105.972V33.4535L102.56 34.426V11.9359H100.279V10.3446H102.56V3.74959C102.595 3.25452 102.701 2.81839 102.878 2.4412C103.067 2.06401 103.309 1.74575 103.603 1.48643C103.91 1.22711 104.263 1.03262 104.664 0.902961C105.065 0.773301 105.501 0.708471 105.972 0.708471H108.978V2.29975C108.306 2.29975 107.77 2.31154 107.369 2.33512C106.98 2.35869 106.68 2.42352 106.468 2.52961C106.255 2.63569 106.12 2.78893 106.061 2.98931C106.002 3.18969 105.972 3.46669 105.972 3.82031V10.3446H108.183V11.9359ZM118.208 10.0086C119.41 10.0086 120.424 10.2326 121.249 10.6805C122.086 11.1166 122.763 11.7119 123.282 12.4663C123.812 13.2207 124.19 14.0929 124.414 15.0831C124.649 16.0614 124.767 17.0987 124.767 18.1949V19.0259H113.876C113.876 19.686 113.982 20.3991 114.194 21.1653C114.406 21.9315 114.748 22.6387 115.22 23.287C115.703 23.9353 116.322 24.4775 117.076 24.9137C117.842 25.338 118.779 25.5502 119.887 25.5502H123.565V27H119.834C118.184 27 116.758 26.8114 115.556 26.4342C114.365 26.057 113.381 25.5089 112.603 24.7899C111.837 24.0709 111.271 23.1927 110.905 22.1554C110.54 21.1181 110.357 19.9335 110.357 18.6016C110.357 17.4936 110.528 16.4209 110.87 15.3836C111.224 14.3464 111.731 13.4328 112.391 12.6431C113.062 11.8416 113.882 11.205 114.848 10.7336C115.827 10.2503 116.946 10.0086 118.208 10.0086ZM118.031 11.6176C117.3 11.6176 116.675 11.7826 116.157 12.1127C115.638 12.4427 115.208 12.8847 114.866 13.4387C114.536 13.9809 114.288 14.6175 114.123 15.3483C113.97 16.0673 113.888 16.8158 113.876 17.5938H121.355V16.8335C121.331 16.1498 121.266 15.4956 121.16 14.8709C121.066 14.2462 120.895 13.6922 120.648 13.2089C120.4 12.7256 120.064 12.3425 119.64 12.0596C119.227 11.7649 118.691 11.6176 118.031 11.6176ZM120.17 7.8162H118.473L113.84 2.63569H117.96L120.17 7.8162Z" fill="#EEEEEE"/>
</svg>
